<svg role="img" viewBox="0 0 24 24" xmlns="http://www.w3.org/2000/svg">
<path d="M12 .297c-6.6 0-12 5.4-12 12 0 5.3 3.4 9.8 8.205 11.385.6.113.82-.258.82-.577v-2.234c-3.338.726-4.033-1.416-4.033-1.416-.546-1.387-1.333-1.757-1.333-1.757-1.091-.75.084-.735.084-.735 1.205.084 1.84 1.234 1.84 1.234 1.071 1.834 2.809 1.304 3.495.997.108-.776.42-1.304.763-1.604-2.665-.305-5.466-1.332-5.466-5.93 0-1.31.468-2.38 1.236-3.218-.124-.303-.536-1.523.117-3.176 0 0 1.008-.322 3.301 1.23.956-.265 1.983-.398 3.003-.403 1.02.005 2.048.138 3.006.403 2.291-1.552 3.297-1.23 3.297-1.23.655 1.653.243 2.873.12 3.176.77.838 1.234 1.908 1.234 3.218 0 4.61-2.806 5.624-5.479 5.922.431.372.815 1.104.815 2.222v3.293c0 .319.218.694.824.576C20.565 22.092 24 17.592 24 12.297c0-6.6-5.4-12-12-12"/>
</svg>
