<svg role="img" viewBox="0 0 24 24" xmlns="http://www.w3.org/2000/svg">
<path d="M23.954 4.569c-.885.39-1.83.654-2.825.775 1.014-.611 1.794-1.574 2.163-2.724-.951.555-2.005.959-3.127 1.184-.897-.959-2.178-1.555-3.594-1.555-2.717 0-4.917 2.208-4.917 4.917 0 .39.045.765.127 1.124-4.083-.205-7.697-2.158-10.118-5.134-.422.722-.666 1.561-.666 2.475 0 1.708.87 3.213 2.188 4.096-.807-.025-1.566-.248-2.228-.616v.061c0 2.385 1.693 4.374 3.946 4.827-.413.111-.848.171-1.296.171-.314 0-.615-.03-.916-.086.631 1.953 2.445 3.377 4.604 3.418-1.68 1.319-3.809 2.107-6.102 2.107-.398 0-.79-.023-1.17-.069 2.182 1.394 4.768 2.208 7.557 2.208 9.054 0 14.001-7.496 14.001-13.986 0-.21 0-.423-.015-.637.961-.689 1.8-1.56 2.46-2.548l-.047-.02z"/>
</svg>
